<svg width="17" height="14" viewBox="0 0 17 14" fill="none" xmlns="http://www.w3.org/2000/svg">
<path d="M14.4646 12.3934H11.566H5.55255C5.30184 12.3934 5.09857 12.6003 5.09857 12.8556V13.14C5.09857 13.3953 5.30182 13.6023 5.55255 13.6023H11.566H14.4647H15.9663V12.3935L14.4646 12.3934Z" fill="#FEDA7B"/>
<path d="M4.60805 5.11761C5.99617 5.11761 7.12147 3.97199 7.12147 2.5588C7.12147 1.14562 5.99617 0 4.60805 0C3.21993 0 2.09464 1.14562 2.09464 2.5588C2.09464 3.97199 3.21993 5.11761 4.60805 5.11761Z" fill="#FEDA7B"/>
<path d="M10.7404 8.83468L4.98069 8.83144L4.84431 8.831V8.15055L4.83958 7.58098C4.83958 6.2205 3.75621 5.11752 2.41979 5.11752C2.37451 5.11752 2.32954 5.11908 2.28486 5.12157L2.28145 5.11752C1.02145 5.11757 0 6.15744 0 7.44022V14H4.84431V11.2055L4.78023 11.2004C4.77567 11.2 4.77453 11.2004 4.7717 11.2004C4.44394 11.2004 4.12983 11.06 3.90846 10.814L1.94224 8.62894C1.87955 8.5593 1.8842 8.45116 1.95263 8.38739C2.02099 8.32357 2.12725 8.32832 2.1899 8.39796L4.1561 10.583C4.31586 10.7605 4.54117 10.8691 4.77842 10.8726C4.79419 10.8728 5.00958 10.876 5.00958 10.876H10.7404C11.2941 10.876 11.743 10.419 11.743 9.85532C11.743 9.29162 11.2941 8.83468 10.7404 8.83468Z" fill="#FEDA7B"/>
<path d="M16.6964 5.21304C16.462 5.13127 16.2068 5.25855 16.1264 5.49724L14.2235 11.1526H7.41442C7.16663 11.1526 6.96565 11.3571 6.96565 11.6094C6.96565 11.8617 7.16663 12.0663 7.41442 12.0663H14.5387C14.6913 12.0663 14.826 11.9885 14.907 11.8699C14.935 11.8323 14.9579 11.7898 14.9738 11.7426L16.9758 5.79313C17.0558 5.55457 16.931 5.29476 16.6964 5.21304Z" fill="#FEDA7B"/>
</svg>
