<?xml version="1.0" encoding="utf-8"?>
<!DOCTYPE svg PUBLIC "-//W3C//DTD SVG 1.1//EN" "http://www.w3.org/Graphics/SVG/1.1/DTD/svg11.dtd">
<svg width="16" height="17" viewBox="0 0 16 17" fill="none" xmlns="http://www.w3.org/2000/svg">
<path d="M3.91838 14H5.87756V15H3.91838V14Z" fill="black"/>
<path d="M8.34632 6.7978L7.65368 6.0907L4.19027 9.62623L2.80493 8.212L2.11226 8.9191L4.19027 11.0404L8.34632 6.7978Z" fill="#FEDA7B"/>
<path d="M16 4H9.79592V1.77363C9.79592 0.795667 9.01652 0 8.05848 0H1.73744C0.779428 0 0 0.795667 0 1.77363V4V13V15.2264C0 16.2043 0.779428 17 1.73744 17H8.05848C9.01652 17 9.79592 16.2043 9.79592 15.2264V13H16V4ZM6.67778 1L6.09002 2H3.70586L3.11811 1H6.67778ZM0.979592 1.77363C0.979592 1.34707 1.31958 1 1.73744 1H1.97574L3.15125 3H6.64464L7.82015 1H8.05845C8.47638 1 8.81633 1.34707 8.81633 1.77363V4H0.979592V1.77363ZM8.81633 15.2264C8.81633 15.6529 8.47637 16 8.05848 16H1.73744C1.31958 16 0.979592 15.6529 0.979592 15.2264V13H8.81633V15.2264ZM15.0204 12H0.979592V5H15.0204V12Z" fill="#FEDA7B"/>
<path d="M9.63264 6H11.5918V7H9.63264V6Z" fill="#FEDA7B"/>
<path d="M9.63264 7.99999H12.5714V8.99999H9.63264V7.99999Z" fill="#FEDA7B"/>
<path d="M9.63264 10H14.0408V11H9.63264V10Z" fill="#FEDA7B"/>
</svg>
