<svg width="18" height="18" viewBox="0 0 18 18" fill="none" xmlns="http://www.w3.org/2000/svg">
<g clip-path="url(#clip0)">
<path d="M9 0C6.105 0 3.75 2.355 3.75 5.25C3.75 8.145 6.105 10.5 9 10.5C11.895 10.5 14.25 8.145 14.25 5.25C14.25 2.355 11.895 0 9 0ZM11.8403 5.06775L10.8195 6.114L11.0618 7.5975C11.0963 7.80975 11.007 8.0235 10.83 8.148C10.734 8.2155 10.62 8.25 10.5068 8.25C10.413 8.25 10.3193 8.22675 10.2345 8.1795L9 7.49775L7.7655 8.18025C7.57725 8.2845 7.34475 8.2725 7.16925 8.148C6.993 8.0235 6.90375 7.80975 6.9375 7.5975L7.17975 6.114L6.15975 5.06775C6.01275 4.917 5.96175 4.69575 6.02925 4.49625C6.096 4.296 6.2685 4.15125 6.47775 4.119L7.866 3.90675L8.4915 2.574C8.676 2.17875 9.32475 2.17875 9.50925 2.574L10.1348 3.90675L11.523 4.119C11.7315 4.1505 11.9048 4.296 11.9715 4.49625C12.0383 4.69575 11.9873 4.917 11.8403 5.06775Z" fill="#FEDA7B"/>
<path d="M4.47 9.735L1.56751 14.9475C1.47001 15.1275 1.47751 15.3525 1.59001 15.525C1.70251 15.6975 1.89751 15.8025 2.1075 15.78L4.4175 15.6075L5.4375 17.685C5.535 17.8725 5.7225 17.9925 5.925 18H5.94C6.1425 18 6.3375 17.8875 6.435 17.715L8.325 14.355L6.4875 11.1075C5.73 10.785 5.0475 10.3125 4.47 9.735Z" fill="#FEDA7B"/>
<path d="M16.425 14.9475L13.5 9.765C12.5475 10.7175 11.295 11.3625 9.9 11.5575C9.6075 11.6025 9.3075 11.625 9 11.625C8.67 11.625 8.3475 11.6025 8.0325 11.55L8.97 13.2075L11.5125 17.715C11.61 17.8875 11.7975 18 12 18H12.015C12.225 17.9925 12.4125 17.8725 12.51 17.685L13.5375 15.6075L15.8925 15.7875C16.1025 15.8025 16.2975 15.705 16.41 15.525C16.5225 15.3525 16.53 15.1275 16.425 14.9475Z" fill="#FEDA7B"/>
</g>
<defs>
<clipPath id="clip0">
<rect width="18" height="18" fill="white"/>
</clipPath>
</defs>
</svg>
